Coordinates
version=1
nRows=32
nColumns=12
inDegrees=yes

Units are S.I. units (second, meters, Newtons, ...)
Angles are in degrees

endheader
time	SC_y	SC_z	SC_x	AC_y	AC_z	AC_x	GH_y	GH_z	GH_yy	EL_x	PS_y
       0.0              -33.98          5.365          37.99          48.38          1.667          9.682          48.05         -17.04          7.153          85.33          113.4
   0.03821              -33.98          5.368           38.0          48.38          1.668          9.681          48.05         -17.03          7.173          85.32          113.4
   0.07642              -33.98          5.371           38.0          48.37          1.669          9.679          48.05         -17.02          7.194          85.32          113.4
    0.1146              -33.98          5.374           38.0          48.37           1.67          9.678          48.05         -17.02          7.216          85.31          113.4
    0.1528              -33.97          5.377           38.0          48.37          1.671          9.676          48.05         -17.01           7.24           85.3          113.4
    0.1911              -33.97           5.38          38.01          48.37          1.673          9.674          48.05          -17.0          7.266           85.3          113.4
    0.2293              -33.97          5.384          38.01          48.37          1.674          9.672          48.05          -17.0          7.293          85.29          113.3
    0.2675              -33.97          5.388          38.01          48.37          1.676           9.67          48.05         -16.99          7.322          85.28          113.3
    0.3057              -33.96          5.392          38.02          48.37          1.678          9.668          48.05         -16.98          7.353          85.27          113.3
    0.3439              -33.96          5.396          38.02          48.37          1.679          9.665          48.05         -16.97          7.386          85.26          113.3
    0.3821              -33.95          5.401          38.03          48.37          1.681          9.663          48.05         -16.96          7.422          85.25          113.3
    0.4203              -33.95          5.406          38.03          48.37          1.683           9.66          48.05         -16.95          7.461          85.24          113.3
    0.4585              -33.95          5.411          38.04          48.37          1.686          9.657          48.05         -16.94          7.502          85.23          113.3
    0.4967              -33.94          5.417          38.04          48.37          1.688          9.654          48.05         -16.93          7.547          85.22          113.3
    0.5349              -33.94          5.423          38.05          48.37          1.691           9.65          48.05         -16.92          7.596          85.21          113.3
    0.5732              -33.93           5.43          38.06          48.37          1.694          9.647          48.05          -16.9          7.649          85.19          113.3
    0.6114              -33.92          5.438          38.06          48.37          1.697          9.643          48.05         -16.89          7.706          85.18          113.2
    0.6496              -33.92          5.446          38.07          48.37            1.7          9.638          48.05         -16.87          7.769          85.16          113.2
    0.6878              -33.91          5.455          38.08          48.37          1.704          9.633          48.05         -16.85          7.837          85.14          113.2
     0.726               -33.9          5.465          38.09          48.37          1.708          9.628          48.06         -16.83          7.912          85.12          113.2
    0.7642              -33.89          5.475           38.1          48.37          1.712          9.622          48.06         -16.81          7.993           85.1          113.2
    0.8024              -33.88          5.487          38.11          48.37          1.717          9.615          48.06         -16.78          8.084          85.08          113.1
    0.8406              -33.87            5.5          38.13          48.37          1.723          9.608          48.06         -16.76          8.183          85.05          113.1
    0.8788              -33.86          5.515          38.14          48.37          1.729            9.6          48.06         -16.73          8.294          85.02          113.1
     0.917              -33.85          5.531          38.16          48.37          1.735          9.592          48.06         -16.69          8.417          84.99          113.0
    0.9553              -33.83          5.549          38.17          48.37          1.743          9.582          48.06         -16.66          8.554          84.95          113.0
    0.9935              -33.81          5.569          38.19          48.37          1.751          9.571          48.06         -16.61          8.707          84.91          113.0
     1.032              -33.79          5.592          38.21          48.37          1.761          9.558          48.06         -16.57           8.88          84.86          112.9
      1.07              -33.77          5.617          38.24          48.37          1.771          9.544          48.06         -16.51          9.075          84.81          112.9
     1.108              -33.75          5.646          38.27          48.37          1.783          9.529          48.06         -16.45          9.296          84.75          112.8
     1.146              -33.72          5.679           38.3          48.37          1.797           9.51          48.07         -16.39          9.549          84.68          112.7
     1.185              -33.69          5.717          38.34          48.37          1.813           9.49          48.07         -16.31          9.839          84.61          112.7
